<svg width="20" height="29" viewBox="0 0 20 29" fill="none" xmlns="http://www.w3.org/2000/svg">
<path d="M10 0C7.34784 0 4.8043 1.06937 2.92893 2.97287C1.05357 4.87636 0 7.45805 0 10.15C0 13.601 1.7 16.6315 4.28571 18.473V21.75C4.28571 22.1346 4.43622 22.5034 4.70413 22.7753C4.97204 23.0472 5.33541 23.2 5.71429 23.2H14.2857C14.6646 23.2 15.028 23.0472 15.2959 22.7753C15.5638 22.5034 15.7143 22.1346 15.7143 21.75V18.473C18.3 16.6315 20 13.601 20 10.15C20 7.45805 18.9464 4.87636 17.0711 2.97287C15.1957 1.06937 12.6522 0 10 0Z" fill="white"/>
<path d="M5.71429 27.5501C5.71429 27.9347 5.8648 28.3035 6.13271 28.5754C6.40062 28.8473 6.76399 29.0001 7.14287 29.0001H12.8572C13.236 29.0001 13.5994 28.8473 13.8673 28.5754C14.1352 28.3035 14.2857 27.9347 14.2857 27.5501V26.1001H5.71429V27.5501Z" fill="#00A5FF"/>
</svg>
