<svg width="272" height="244" viewBox="0 0 272 244" fill="none" xmlns="http://www.w3.org/2000/svg">
<path d="M2 182C2 142 62 52 93 52H179C210 52 270 142 270 182C270 222 222 242 138 242H134C50 242 2 222 2 182Z" fill="black" fill-opacity="0.1"/>
<path d="M93 52C62 52 2 142 2 182C2 222 50 242 134 242H138C222 242 270 222 270 182C270 142 210 52 179 52" stroke="#5E728D" stroke-width="4" stroke-linecap="round" stroke-linejoin="round"/>
<path d="M86.6 182.617C89.5333 179.683 91 176.144 91 172C91 167.856 89.5333 164.322 86.6 161.4C83.6778 158.467 80.1444 157 76 157C71.8556 157 68.3167 158.467 65.3833 161.4C62.4611 164.322 61 167.856 61 172C61 176.144 62.4611 179.683 65.3833 182.617C68.3167 185.539 71.8556 187 76 187C80.1444 187 83.6778 185.539 86.6 182.617Z" fill="#F5CE00"/>
<path opacity="0.8" d="M68.2334 175.067C68.2445 177.444 68.9778 179.239 70.4334 180.45L70.45 180.467C71.7611 181.611 73.6445 182.183 76.1 182.183C78.4445 182.183 80.2834 181.594 81.6167 180.417C83.0834 179.161 83.8223 177.378 83.8334 175.067C83.8334 174.778 83.7334 174.539 83.5334 174.35C83.3445 174.161 83.1111 174.067 82.8334 174.067H69.2167C68.95 174.067 68.7167 174.161 68.5167 174.35C68.3278 174.539 68.2334 174.778 68.2334 175.067ZM71.7167 178.95C70.9278 178.239 70.45 177.267 70.2834 176.033H81.7834C81.6167 177.244 81.1278 178.211 80.3167 178.933V178.917C79.2834 179.783 77.8778 180.217 76.1 180.217C74.2111 180.217 72.75 179.794 71.7167 178.95ZM68.1834 170.817C68.5945 171.217 69.0834 171.417 69.65 171.417C70.2167 171.417 70.6945 171.217 71.0834 170.817C71.4834 170.428 71.6834 169.95 71.6834 169.383C71.6834 168.806 71.4834 168.317 71.0834 167.917C70.6945 167.528 70.2167 167.333 69.65 167.333C69.0834 167.333 68.5945 167.528 68.1834 167.917C67.7945 168.317 67.6 168.806 67.6 169.383C67.6 169.95 67.7945 170.428 68.1834 170.817ZM82.3334 171.417C82.9 171.417 83.3778 171.217 83.7667 170.817C84.1667 170.428 84.3667 169.95 84.3667 169.383C84.3667 168.806 84.1667 168.317 83.7667 167.917C83.3778 167.528 82.9 167.333 82.3334 167.333C81.7667 167.333 81.2778 167.528 80.8667 167.917C80.4778 168.317 80.2834 168.806 80.2834 169.383C80.2834 169.95 80.4778 170.428 80.8667 170.817C81.2778 171.217 81.7667 171.417 82.3334 171.417Z" fill="black"/>
<path d="M144.6 182.617C147.533 179.683 149 176.144 149 172C149 167.856 147.533 164.322 144.6 161.4C141.678 158.467 138.144 157 134 157C129.856 157 126.317 158.467 123.383 161.4C120.461 164.322 119 167.856 119 172C119 176.144 120.461 179.683 123.383 182.617C126.317 185.539 129.856 187 134 187C138.144 187 141.678 185.539 144.6 182.617Z" fill="#00E3C8"/>
<path opacity="0.8" d="M126.233 175.067C126.244 177.444 126.978 179.239 128.433 180.45L128.45 180.467C129.761 181.611 131.644 182.183 134.1 182.183C136.444 182.183 138.283 181.594 139.617 180.417C141.083 179.161 141.822 177.378 141.833 175.067C141.833 174.778 141.733 174.539 141.533 174.35C141.344 174.161 141.111 174.067 140.833 174.067H127.217C126.95 174.067 126.717 174.161 126.517 174.35C126.328 174.539 126.233 174.778 126.233 175.067ZM129.717 178.95C128.928 178.239 128.45 177.267 128.283 176.033H139.783C139.617 177.244 139.128 178.211 138.317 178.933V178.917C137.283 179.783 135.878 180.217 134.1 180.217C132.211 180.217 130.75 179.794 129.717 178.95ZM126.183 170.817C126.594 171.217 127.083 171.417 127.65 171.417C128.217 171.417 128.694 171.217 129.083 170.817C129.483 170.428 129.683 169.95 129.683 169.383C129.683 168.806 129.483 168.317 129.083 167.917C128.694 167.528 128.217 167.333 127.65 167.333C127.083 167.333 126.594 167.528 126.183 167.917C125.794 168.317 125.6 168.806 125.6 169.383C125.6 169.95 125.794 170.428 126.183 170.817ZM140.333 171.417C140.9 171.417 141.378 171.217 141.767 170.817C142.167 170.428 142.367 169.95 142.367 169.383C142.367 168.806 142.167 168.317 141.767 167.917C141.378 167.528 140.9 167.333 140.333 167.333C139.767 167.333 139.278 167.528 138.867 167.917C138.478 168.317 138.283 168.806 138.283 169.383C138.283 169.95 138.478 170.428 138.867 170.817C139.278 171.217 139.767 171.417 140.333 171.417Z" fill="black"/>
<path d="M202.6 182.617C205.533 179.683 207 176.144 207 172C207 167.856 205.533 164.322 202.6 161.4C199.678 158.467 196.144 157 192 157C187.856 157 184.317 158.467 181.383 161.4C178.461 164.322 177 167.856 177 172C177 176.144 178.461 179.683 181.383 182.617C184.317 185.539 187.856 187 192 187C196.144 187 199.678 185.539 202.6 182.617Z" fill="#00A5FF"/>
<path opacity="0.8" d="M184.233 175.067C184.244 177.444 184.978 179.239 186.433 180.45L186.45 180.467C187.761 181.611 189.644 182.183 192.1 182.183C194.444 182.183 196.283 181.594 197.617 180.417C199.083 179.161 199.822 177.378 199.833 175.067C199.833 174.778 199.733 174.539 199.533 174.35C199.344 174.161 199.111 174.067 198.833 174.067H185.217C184.95 174.067 184.717 174.161 184.517 174.35C184.328 174.539 184.233 174.778 184.233 175.067ZM187.717 178.95C186.928 178.239 186.45 177.267 186.283 176.033H197.783C197.617 177.244 197.128 178.211 196.317 178.933V178.917C195.283 179.783 193.878 180.217 192.1 180.217C190.211 180.217 188.75 179.794 187.717 178.95ZM184.183 170.817C184.594 171.217 185.083 171.417 185.65 171.417C186.217 171.417 186.694 171.217 187.083 170.817C187.483 170.428 187.683 169.95 187.683 169.383C187.683 168.806 187.483 168.317 187.083 167.917C186.694 167.528 186.217 167.333 185.65 167.333C185.083 167.333 184.594 167.528 184.183 167.917C183.794 168.317 183.6 168.806 183.6 169.383C183.6 169.95 183.794 170.428 184.183 170.817ZM198.333 171.417C198.9 171.417 199.378 171.217 199.767 170.817C200.167 170.428 200.367 169.95 200.367 169.383C200.367 168.806 200.167 168.317 199.767 167.917C199.378 167.528 198.9 167.333 198.333 167.333C197.767 167.333 197.278 167.528 196.867 167.917C196.478 168.317 196.283 168.806 196.283 169.383C196.283 169.95 196.478 170.428 196.867 170.817C197.278 171.217 197.767 171.417 198.333 171.417Z" fill="black"/>
<path d="M100 0H161L172 11V98H100V0Z" fill="white"/>
<rect x="106" y="10" width="19" height="2" fill="black" fill-opacity="0.2"/>
<rect x="106" y="78" width="19" height="2" fill="black" fill-opacity="0.2"/>
<rect x="106" y="15" width="60" height="2" fill="black" fill-opacity="0.2"/>
<rect x="106" y="20" width="60" height="2" fill="black" fill-opacity="0.2"/>
<rect x="106" y="25" width="60" height="2" fill="black" fill-opacity="0.2"/>
<rect x="106" y="30" width="28" height="2" fill="black" fill-opacity="0.2"/>
<rect x="106" y="35" width="28" height="2" fill="black" fill-opacity="0.2"/>
<rect x="106" y="40" width="28" height="2" fill="black" fill-opacity="0.2"/>
<rect x="106" y="45" width="28" height="2" fill="black" fill-opacity="0.2"/>
<rect x="138" y="30" width="28" height="17" fill="black" fill-opacity="0.2"/>
<rect x="106" y="50" width="60" height="2" fill="black" fill-opacity="0.2"/>
<rect x="106" y="55" width="60" height="2" fill="black" fill-opacity="0.2"/>
<rect x="106" y="60" width="60" height="2" fill="black" fill-opacity="0.2"/>
<rect x="106" y="65" width="60" height="2" fill="black" fill-opacity="0.2"/>
<rect x="106" y="70" width="60" height="2" fill="black" fill-opacity="0.2"/>
<path d="M161 0L172 11H161V0Z" fill="#C4C4C4"/>
</svg>
