<svg width="280" height="410" viewBox="0 0 280 410" fill="none" xmlns="http://www.w3.org/2000/svg">
<path d="M177.167 198.6H171.7H151.2V195.867H171.7C172.454 195.867 173.067 195.254 173.067 194.5C173.067 183.196 163.87 174 152.567 174H133.433C122.13 174 112.933 183.196 112.933 194.5C112.933 195.254 113.546 195.867 114.3 195.867H134.8V198.6H114.3H108.833C105.065 198.6 102 201.665 102 205.433V232.767C102 236.535 105.065 239.6 108.833 239.6C110.378 239.6 111.788 239.066 112.933 238.198V240.967C112.933 244.735 115.999 247.8 119.767 247.8V251.217C119.767 253.854 121.912 256 124.55 256C127.188 256 129.333 253.854 129.333 251.217V247.8H156.667V251.217C156.667 253.854 158.812 256 161.45 256C164.088 256 166.233 253.854 166.233 251.217V247.8C170.001 247.8 173.067 244.735 173.067 240.967V238.198C174.212 239.066 175.622 239.6 177.167 239.6C180.935 239.6 184 236.535 184 232.767V205.433C184 201.665 180.935 198.6 177.167 198.6Z" fill="white" fill-opacity="0.88"/>
<path d="M177.167 198.6H171.7H151.2V195.867H171.7C172.454 195.867 173.067 195.254 173.067 194.5C173.067 183.196 163.87 174 152.567 174H133.433C122.13 174 112.933 183.196 112.933 194.5C112.933 195.254 113.546 195.867 114.3 195.867H134.8V198.6H114.3H108.833C105.065 198.6 102 201.665 102 205.433V232.767C102 236.535 105.065 239.6 108.833 239.6C110.378 239.6 111.788 239.066 112.933 238.198V240.967C112.933 244.735 115.999 247.8 119.767 247.8V251.217C119.767 253.854 121.912 256 124.55 256C127.188 256 129.333 253.854 129.333 251.217V247.8H156.667V251.217C156.667 253.854 158.812 256 161.45 256C164.088 256 166.233 253.854 166.233 251.217V247.8C170.001 247.8 173.067 244.735 173.067 240.967V238.198C174.212 239.066 175.622 239.6 177.167 239.6C180.935 239.6 184 236.535 184 232.767V205.433C184 201.665 180.935 198.6 177.167 198.6ZM133.433 176.733H152.567C161.904 176.733 169.582 183.973 170.281 193.133H115.719C116.418 183.973 124.096 176.733 133.433 176.733ZM137.533 195.867H148.467V198.6H137.533V195.867ZM108.833 236.867C106.573 236.867 104.733 235.027 104.733 232.767V205.433C104.733 203.173 106.573 201.333 108.833 201.333H112.933V232.767C112.933 235.027 111.094 236.867 108.833 236.867ZM126.6 251.217C126.6 252.347 125.68 253.267 124.55 253.267C123.42 253.267 122.5 252.347 122.5 251.217V247.8H126.6V251.217ZM163.5 251.217C163.5 252.347 162.58 253.267 161.45 253.267C160.32 253.267 159.4 252.347 159.4 251.217V247.8H163.5V251.217ZM170.333 240.967C170.333 243.227 168.494 245.067 166.233 245.067H164.867H158.033H127.967H121.133H119.767C117.506 245.067 115.667 243.227 115.667 240.967V232.767V201.333H170.333V232.767V240.967ZM181.267 232.767C181.267 235.027 179.427 236.867 177.167 236.867C174.906 236.867 173.067 235.027 173.067 232.767V201.333H177.167C179.427 201.333 181.267 203.173 181.267 205.433V232.767Z" fill="#001F4A"/>
<path d="M136.44 180.56C134.18 180.56 132.34 182.452 132.34 184.777V186.183C132.34 188.508 134.18 190.4 136.44 190.4C138.7 190.4 140.54 188.508 140.54 186.183V184.777C140.54 182.452 138.7 180.56 136.44 180.56ZM137.807 186.183C137.807 186.957 137.193 187.589 136.44 187.589C135.687 187.589 135.073 186.957 135.073 186.183V184.777C135.073 184.003 135.687 183.371 136.44 183.371C137.193 183.371 137.807 184.003 137.807 184.777V186.183Z" fill="#001F4A"/>
<path d="M149.56 180.56C147.3 180.56 145.46 182.452 145.46 184.777V186.183C145.46 188.508 147.3 190.4 149.56 190.4C151.82 190.4 153.66 188.508 153.66 186.183V184.777C153.66 182.452 151.82 180.56 149.56 180.56ZM150.927 186.183C150.927 186.957 150.313 187.589 149.56 187.589C148.807 187.589 148.193 186.957 148.193 186.183V184.777C148.193 184.003 148.807 183.371 149.56 183.371C150.313 183.371 150.927 184.003 150.927 184.777V186.183Z" fill="#001F4A"/>
<path d="M151.685 205.16H135.135C131.333 205.16 128.24 208.199 128.24 211.934V229.546C128.24 233.281 131.333 236.32 135.135 236.32H151.685C155.487 236.32 158.58 233.281 158.58 229.546V211.934C158.58 208.199 155.487 205.16 151.685 205.16ZM155.822 229.546C155.822 231.787 153.966 233.61 151.685 233.61H135.135C132.854 233.61 130.998 231.787 130.998 229.546V211.934C130.998 209.693 132.854 207.87 135.135 207.87H151.685C153.966 207.87 155.822 209.693 155.822 211.934V229.546Z" fill="#001F4A"/>
<path d="M150.673 210.9H134.507C133.763 210.9 133.16 211.501 133.16 212.242V224.318C133.16 225.059 133.763 225.66 134.507 225.66H150.673C151.416 225.66 152.02 225.059 152.02 224.318V212.242C152.02 211.501 151.416 210.9 150.673 210.9ZM149.326 222.976H135.854V213.584H149.326V222.976Z" fill="#001F4A"/>
<path d="M133.16 228.94H135.62V231.4H133.16V228.94Z" fill="#001F4A"/>
<path d="M138.9 228.94H141.36V231.4H138.9V228.94Z" fill="#001F4A"/>
<path d="M144.64 228.94H147.1V231.4H144.64V228.94Z" fill="#001F4A"/>
<path d="M149.56 228.94H152.02V231.4H149.56V228.94Z" fill="#001F4A"/>
<path d="M133.16 239.6H141.36V242.06H133.16V239.6Z" fill="#001F4A"/>
<path d="M144.64 239.6H152.84V242.06H144.64V239.6Z" fill="#001F4A"/>
<circle cx="13" cy="90" r="10" fill="#F5CE00"/>
<circle cx="142" cy="39" r="10" fill="#F5CE00"/>
<rect x="258" y="80" width="20" height="20" fill="#00A5FF"/>
<path d="M12.5 49L23.3253 67.75H1.67468L12.5 49Z" fill="#00E3C8"/>
<path d="M142.5 0L154.388 8.63729L149.847 22.6127H135.153L130.612 8.63729L142.5 0Z" fill="#FF4E43"/>
<path d="M267.5 52L279.388 60.6373L274.847 74.6127H260.153L255.612 60.6373L267.5 52Z" fill="#FF4E43"/>
<circle cx="181" cy="398" r="10" fill="#F5CE00"/>
<rect x="100" y="388" width="20" height="20" fill="#00A5FF"/>
<path d="M171 355L191 375H171V355Z" fill="#0067F2"/>
<path d="M112.5 357L123.325 375.75H101.675L112.5 357Z" fill="#00E3C8"/>
<path d="M145.5 353L157.388 361.637L152.847 375.613H138.153L133.612 361.637L145.5 353Z" fill="#FF4E43"/>
<path d="M146.5 385L159 397.5L146.5 410L134 397.5L146.5 385Z" fill="#A56DFF"/>
<path d="M142 159L142 57" stroke="white" stroke-opacity="0.2" stroke-width="2" stroke-linecap="round" stroke-linejoin="round" stroke-dasharray="8 4"/>
<path d="M142 334L142 286" stroke="white" stroke-opacity="0.2" stroke-width="2" stroke-linecap="round" stroke-linejoin="round" stroke-dasharray="8 4"/>
<path d="M135.703 293.703L142 286" stroke="white" stroke-opacity="0.2" stroke-width="2" stroke-linecap="round" stroke-linejoin="round" stroke-dasharray="8 4"/>
<path d="M148 294L142 286" stroke="white" stroke-opacity="0.2" stroke-width="2" stroke-linecap="round" stroke-linejoin="round" stroke-dasharray="8 4"/>
<path d="M29 102.414L100.586 174" stroke="white" stroke-opacity="0.2" stroke-width="2" stroke-linecap="round" stroke-linejoin="round" stroke-dasharray="8 4"/>
<path d="M254.016 103L183.5 173.516" stroke="white" stroke-opacity="0.2" stroke-width="2" stroke-linecap="round" stroke-linejoin="round" stroke-dasharray="8 4"/>
</svg>
