<?xml version="1.0" encoding="UTF-8"?>
<svg width="16px" height="14px" viewBox="0 0 16 14" version="1.1" xmlns="http://www.w3.org/2000/svg" xmlns:xlink="http://www.w3.org/1999/xlink">
    <!-- Generator: Sketch 50.2 (55047) - http://www.bohemiancoding.com/sketch -->
    <title>Twitter_Logo_WhiteOnImage</title>
    <desc>Created with Sketch.</desc>
    <defs></defs>
    <g id="Marketing-Website" stroke="none" stroke-width="1" fill="none" fill-rule="evenodd">
        <g id="Desktop-HD-Copy-6" transform="translate(-100.000000, -4025.000000)" fill="#FFFFFF" fill-rule="nonzero">
            <g id="Twitter_Logo_WhiteOnImage" transform="translate(100.000000, 4025.000000)">
                <path d="M5.216,13.096 C10.874,13.096 13.97,8.404 13.97,4.342 C13.97,4.21 13.97,4.078 13.964,3.946 C14.564,3.514 15.086,2.968 15.5,2.35 C14.948,2.596 14.354,2.758 13.73,2.836 C14.366,2.458 14.852,1.852 15.086,1.132 C14.492,1.486 13.832,1.738 13.13,1.876 C12.566,1.276 11.768,0.904 10.886,0.904 C9.188,0.904 7.808,2.284 7.808,3.982 C7.808,4.222 7.838,4.456 7.886,4.684 C5.33,4.558 3.062,3.328 1.544,1.468 C1.28,1.924 1.13,2.452 1.13,3.016 C1.13,4.084 1.676,5.026 2.498,5.578 C1.994,5.56 1.52,5.422 1.106,5.194 C1.106,5.206 1.106,5.218 1.106,5.236 C1.106,6.724 2.168,7.972 3.572,8.254 C3.314,8.326 3.044,8.362 2.762,8.362 C2.564,8.362 2.372,8.344 2.186,8.308 C2.576,9.532 3.716,10.42 5.06,10.444 C4.004,11.272 2.678,11.764 1.238,11.764 C0.992,11.764 0.746,11.752 0.506,11.722 C1.862,12.586 3.482,13.096 5.216,13.096" id="Shape"></path>
            </g>
        </g>
    </g>
</svg>