<?xml version="1.0" encoding="UTF-8"?>
<svg width="228px" height="32px" viewBox="0 0 228 32" version="1.1" xmlns="http://www.w3.org/2000/svg" xmlns:xlink="http://www.w3.org/1999/xlink">
    <!-- Generator: Sketch 48.2 (47327) - http://www.bohemiancoding.com/sketch -->
    <title>Artboard 3 Copy 2</title>
    <desc>Created with Sketch.</desc>
    <defs></defs>
    <g id="Symbols" stroke="none" stroke-width="1" fill="none" fill-rule="evenodd">
        <g id="Artboard-3-Copy-2">
            <path d="M71.7341125,25.2768444 C71.8412472,25.5553946 71.8948137,25.812514 71.8948137,26.0482104 C71.8948137,26.6053108 71.7126875,27.0606264 71.3484295,27.4141709 C70.9841715,27.7677154 70.5663525,27.944485 70.0949598,27.944485 C69.7092749,27.944485 69.3610924,27.8266386 69.0504018,27.5909423 C68.7397111,27.355246 68.4986617,27.0338467 68.3272462,26.6267348 L66.6559533,22.7377648 L57.0781592,22.7377648 L55.4068663,26.6588751 C55.2568778,27.0659869 55.0265416,27.3820296 54.715851,27.6070124 C54.4051604,27.8319953 54.0676911,27.944485 53.7034332,27.944485 C53.1463327,27.944485 52.723157,27.7944987 52.4338934,27.4945215 C52.1446297,27.1945444 52,26.7874387 52,26.2731921 C52,26.0803497 52.0321399,25.8767968 52.0964207,25.6625274 L60.0993426,6.44265888 C60.2707581,6.01412009 60.5278775,5.68200751 60.8707085,5.44631118 C61.2135396,5.21061484 61.5992187,5.11419506 62.0277575,5.15704894 C62.4134424,5.15704894 62.7723382,5.26953869 63.1044558,5.49452155 C63.4365734,5.71950441 63.6776228,6.03554703 63.8276114,6.44265888 L71.7341125,25.2768444 Z M58.6530314,19.0416362 L65.0810811,19.0416362 L61.834916,11.5208181 L58.6530314,19.0416362 Z M81.7940102,10.2673484 C83.6153001,10.2673484 85.0830234,10.5512511 86.1972243,11.119065 C87.3114251,11.6868789 87.8685172,12.4421672 87.8685172,13.3849525 C87.8685172,13.8563452 87.7292441,14.2688076 87.4506939,14.6223521 C87.1721437,14.9758966 86.8078912,15.1526662 86.3579255,15.1526662 C86.0150945,15.1526662 85.7365484,15.1044563 85.522279,15.0080351 C85.3080096,14.9116138 85.0991001,14.7830541 84.8955442,14.6223521 C84.6919883,14.46165 84.4937921,14.3277337 84.3009496,14.220599 C84.0866802,14.1134643 83.7706376,14.0170445 83.3528123,13.9313367 C82.934987,13.845629 82.5975177,13.8027757 82.3403944,13.8027757 C80.733374,13.8027757 79.4745602,14.3009446 78.5639153,15.2972973 C77.6532703,16.29365 77.1979547,17.595317 77.1979547,19.2023375 C77.1979547,20.7450771 77.658627,22.0253175 78.5799854,23.0430972 C79.5013438,24.0608768 80.6798078,24.5697589 82.1154127,24.5697589 C83.1653327,24.5697589 83.9474043,24.4411992 84.4616508,24.184076 C84.5902125,24.1197951 84.7669821,24.0073054 84.9919649,23.8466034 C85.2169478,23.6859013 85.4258573,23.5626983 85.6186998,23.4769905 C85.8115422,23.3912827 86.047235,23.3484295 86.3257852,23.3484295 C86.8614587,23.3484295 87.2846344,23.5198425 87.5953251,23.8626735 C87.9060157,24.2055045 88.0613587,24.6447502 88.0613587,25.1804237 C88.0613587,25.6946702 87.761386,26.1767691 87.1614317,26.6267348 C86.5614774,27.0767006 85.7686925,27.4355964 84.7830533,27.7034332 C83.7974141,27.9712699 82.7475098,28.1051863 81.633309,28.1051863 C79.9834347,28.1051863 78.5317813,27.7195071 77.2783053,26.9481373 C76.0248294,26.1767675 75.0552749,25.1107933 74.3696129,23.7501826 C73.6839508,22.389572 73.3411249,20.8736387 73.3411249,19.2023375 C73.3411249,17.4667554 73.7000208,15.9240389 74.4178232,14.5741417 C75.1356257,13.2242445 76.1373201,12.1689836 77.4229364,11.4083272 C78.7085528,10.6476709 80.1655628,10.2673484 81.7940102,10.2673484 Z M98.3462381,10.2673484 C100.167528,10.2673484 101.635251,10.5512511 102.749452,11.119065 C103.863653,11.6868789 104.420745,12.4421672 104.420745,13.3849525 C104.420745,13.8563452 104.281472,14.2688076 104.002922,14.6223521 C103.724372,14.9758966 103.360119,15.1526662 102.910153,15.1526662 C102.567322,15.1526662 102.288776,15.1044563 102.074507,15.0080351 C101.860238,14.9116138 101.651328,14.7830541 101.447772,14.6223521 C101.244216,14.46165 101.04602,14.3277337 100.853178,14.220599 C100.638908,14.1134643 100.322865,14.0170445 99.9050402,13.9313367 C99.4872149,13.845629 99.1497456,13.8027757 98.8926224,13.8027757 C97.2856019,13.8027757 96.0267881,14.3009446 95.1161432,15.2972973 C94.2054982,16.29365 93.7501826,17.595317 93.7501826,19.2023375 C93.7501826,20.7450771 94.2108549,22.0253175 95.1322133,23.0430972 C96.0535717,24.0608768 97.2320357,24.5697589 98.6676406,24.5697589 C99.7175606,24.5697589 100.499632,24.4411992 101.013879,24.184076 C101.14244,24.1197951 101.31921,24.0073054 101.544193,23.8466034 C101.769176,23.6859013 101.978085,23.5626983 102.170928,23.4769905 C102.36377,23.3912827 102.599463,23.3484295 102.878013,23.3484295 C103.413687,23.3484295 103.836862,23.5198425 104.147553,23.8626735 C104.458244,24.2055045 104.613587,24.6447502 104.613587,25.1804237 C104.613587,25.6946702 104.313614,26.1767691 103.71366,26.6267348 C103.113705,27.0767006 102.32092,27.4355964 101.335281,27.7034332 C100.349642,27.9712699 99.2997377,28.1051863 98.1855369,28.1051863 C96.5356626,28.1051863 95.0840092,27.7195071 93.8305332,26.9481373 C92.5770573,26.1767675 91.6075028,25.1107933 90.9218408,23.7501826 C90.2361787,22.389572 89.8933528,20.8736387 89.8933528,19.2023375 C89.8933528,17.4667554 90.2522487,15.9240389 90.9700511,14.5741417 C91.6878536,13.2242445 92.689548,12.1689836 93.9751644,11.4083272 C95.2607807,10.6476709 96.7177907,10.2673484 98.3462381,10.2673484 Z M116.344777,10.2673484 C116.987585,10.2673484 117.528607,10.4494747 117.96786,10.8137327 C118.407112,11.1779906 118.626735,11.606523 118.626735,12.0993426 C118.626735,12.7635777 118.455322,13.2617466 118.112491,13.5938641 C117.76966,13.9259817 117.362554,14.092038 116.891161,14.092038 C116.569757,14.092038 116.205505,14.0170448 115.798393,13.8670562 C115.734112,13.8456293 115.589482,13.8027761 115.3645,13.7384953 C115.139517,13.6742144 114.898467,13.6420745 114.641344,13.6420745 C114.084244,13.6420745 113.548578,13.8134875 113.034332,14.1563185 C112.520085,14.4991495 112.096909,15.018745 111.764792,15.7151205 C111.432674,16.4114961 111.266618,17.2417775 111.266618,18.2059898 L111.266618,25.8232286 C111.266618,26.3803291 111.084492,26.846358 110.720234,27.2213294 C110.355976,27.5963009 109.895303,27.7837838 109.338203,27.7837838 C108.781103,27.7837838 108.32043,27.5963009 107.956172,27.2213294 C107.591914,26.846358 107.409788,26.3803291 107.409788,25.8232286 L107.409788,12.5493061 C107.409788,11.9922056 107.591914,11.5261767 107.956172,11.1512053 C108.32043,10.7762338 108.781103,10.5887509 109.338203,10.5887509 C109.895303,10.5887509 110.355976,10.7762338 110.720234,11.1512053 C111.084492,11.5261767 111.266618,11.9922056 111.266618,12.5493061 L111.266618,12.9671293 C111.759438,12.0886248 112.466516,11.419043 113.387874,10.9583638 C114.309233,10.4976846 115.294857,10.2673484 116.344777,10.2673484 Z M136.07889,18.7845142 C136.057463,19.2987608 135.85391,19.7165798 135.468225,20.0379839 C135.08254,20.359388 134.632581,20.5200877 134.118335,20.5200877 L123.512053,20.5200877 C123.769176,21.7842771 124.358408,22.7752582 125.279766,23.4930606 C126.201125,24.2108631 127.240316,24.5697589 128.39737,24.5697589 C129.275875,24.5697589 129.961527,24.4894091 130.454346,24.3287071 C130.947166,24.168005 131.338202,23.9965921 131.627465,23.8144631 C131.916729,23.6323341 132.114925,23.5091311 132.22206,23.4448503 C132.607745,23.2520078 132.971997,23.155588 133.314828,23.155588 C133.764794,23.155588 134.150473,23.3162877 134.471877,23.6376917 C134.793281,23.9590958 134.953981,24.3340617 134.953981,24.7626004 C134.953981,25.3411278 134.654008,25.8660799 134.054054,26.3374726 C133.4541,26.8302922 132.650602,27.2481113 131.643535,27.5909423 C130.636469,27.9337733 129.618705,28.1051863 128.590212,28.1051863 C126.790349,28.1051863 125.220849,27.7302205 123.881665,26.9802776 C122.542482,26.2303347 121.508647,25.1965004 120.780131,23.8787436 C120.051616,22.5609868 119.687363,21.0771935 119.687363,19.4273192 C119.687363,17.5846024 120.073042,15.9668928 120.844412,14.5741417 C121.615782,13.1813907 122.633546,12.1154164 123.897736,11.376187 C125.161925,10.6369576 126.511802,10.2673484 127.947407,10.2673484 C129.361585,10.2673484 130.695392,10.6530276 131.948868,11.4243974 C133.202344,12.1957672 134.204038,13.2349582 134.953981,14.5420015 C135.703924,15.8490448 136.07889,17.2632015 136.07889,18.7845142 Z M127.947407,13.8027757 C125.461882,13.8027757 123.994159,14.9705264 123.544193,17.3060628 L131.964938,17.3060628 L131.964938,17.0810811 C131.87923,16.1811496 131.439984,15.4097914 130.647188,14.7669832 C129.854391,14.124175 128.954473,13.8027757 127.947407,13.8027757 Z M153.209642,4 C153.766742,4 154.227415,4.18212625 154.591673,4.54638422 C154.955931,4.91064219 155.138057,5.38202779 155.138057,5.96055515 L155.138057,25.8232286 C155.138057,26.3803291 154.955931,26.846358 154.591673,27.2213294 C154.227415,27.5963009 153.766742,27.7837838 153.209642,27.7837838 C152.652542,27.7837838 152.197226,27.6016575 151.843682,27.2373996 C151.490137,26.8731416 151.302654,26.4124693 151.281227,25.8553689 C150.745554,26.4767501 150.022405,27.0070589 149.11176,27.4463112 C148.201115,27.8855634 147.242274,28.1051863 146.235208,28.1051863 C144.756749,28.1051863 143.417586,27.7248638 142.217677,26.9642075 C141.017769,26.2035511 140.069641,25.1482902 139.373265,23.798393 C138.67689,22.4484958 138.328707,20.9164926 138.328707,19.2023375 C138.328707,17.4881823 138.671533,15.9508225 139.357195,14.5902118 C140.042857,13.2296012 140.980272,12.1689836 142.169467,11.4083272 C143.358662,10.6476709 144.671042,10.2673484 146.106647,10.2673484 C147.13514,10.2673484 148.099338,10.4548313 148.99927,10.8298028 C149.899201,11.2047742 150.659846,11.6815165 151.281227,12.2600438 L151.281227,5.96055515 C151.281227,5.40345473 151.463353,4.93742579 151.827611,4.56245435 C152.191869,4.18748291 152.652542,4 153.209642,4 Z M146.717312,24.5697589 C148.110063,24.5697589 149.245674,24.0608768 150.124178,23.0430972 C151.002683,22.0253175 151.441928,20.7450771 151.441928,19.2023375 C151.441928,17.6595978 151.002683,16.3740008 150.124178,15.3455077 C149.245674,14.3170146 148.110063,13.8027757 146.717312,13.8027757 C145.345988,13.8027757 144.22109,14.3170146 143.342586,15.3455077 C142.464081,16.3740008 142.024836,17.6595978 142.024836,19.2023375 C142.024836,20.7450771 142.458725,22.0253175 143.326516,23.0430972 C144.194307,24.0608768 145.324561,24.5697589 146.717312,24.5697589 Z M162.948137,25.8232286 C162.948137,26.3803291 162.766011,26.846358 162.401753,27.2213294 C162.037495,27.5963009 161.576823,27.7837838 161.019722,27.7837838 C160.462622,27.7837838 160.00195,27.5963009 159.637692,27.2213294 C159.273434,26.846358 159.091308,26.3803291 159.091308,25.8232286 L159.091308,12.5493061 C159.091308,11.9922056 159.273434,11.5261767 159.637692,11.1512053 C160.00195,10.7762338 160.462622,10.5887509 161.019722,10.5887509 C161.576823,10.5887509 162.037495,10.7762338 162.401753,11.1512053 C162.766011,11.5261767 162.948137,11.9922056 162.948137,12.5493061 L162.948137,25.8232286 Z M160.987582,8.49963477 C160.259066,8.49963477 159.744827,8.38178837 159.44485,8.14609204 C159.144873,7.9103957 158.994887,7.49257665 158.994887,6.89262235 L158.994887,6.28195763 C158.994887,5.68200333 159.155586,5.26418428 159.476991,5.02848795 C159.798395,4.79279161 160.312633,4.67494522 161.019722,4.67494522 C161.769665,4.67494522 162.294617,4.79279161 162.594595,5.02848795 C162.894572,5.26418428 163.044558,5.68200333 163.044558,6.28195763 L163.044558,6.89262235 C163.044558,7.51400359 162.889215,7.9371793 162.578524,8.16216216 C162.267834,8.38714503 161.737525,8.49963477 160.987582,8.49963477 Z M175.193572,24.1519357 C175.493549,24.1519357 175.766738,24.2965654 176.013148,24.5858291 C176.259558,24.8750928 176.382761,25.2554152 176.382761,25.7268079 C176.382761,26.3053353 176.066719,26.7927908 175.434624,27.1891892 C174.802529,27.5855876 174.090094,27.7837838 173.297297,27.7837838 C171.968827,27.7837838 170.849286,27.4998811 169.938641,26.9320672 C169.027996,26.3642533 168.572681,25.159006 168.572681,23.3162893 L168.572681,14.4455807 L167.094229,14.4455807 C166.579983,14.4455807 166.15145,14.2741678 165.808619,13.9313367 C165.465788,13.5885057 165.294375,13.1599734 165.294375,12.6457268 C165.294375,12.1529072 165.465788,11.7404448 165.808619,11.4083272 C166.15145,11.0762097 166.579983,10.9101534 167.094229,10.9101534 L168.572681,10.9101534 L168.572681,8.8531775 C168.572681,8.29607708 168.760164,7.83004814 169.135135,7.4550767 C169.510107,7.08010526 169.976136,6.89262235 170.533236,6.89262235 C171.068909,6.89262235 171.518868,7.08010526 171.883126,7.4550767 C172.247384,7.83004814 172.429511,8.29607708 172.429511,8.8531775 L172.429511,10.9101534 L174.711468,10.9101534 C175.225715,10.9101534 175.654247,11.0815663 175.997078,11.4243974 C176.339909,11.7672284 176.511322,12.1957608 176.511322,12.7100073 C176.511322,13.2028269 176.339909,13.6152893 175.997078,13.9474069 C175.654247,14.2795244 175.225715,14.4455807 174.711468,14.4455807 L172.429511,14.4455807 L172.429511,23.155588 C172.429511,23.6055537 172.547357,23.9323097 172.783053,24.1358656 C173.01875,24.3394215 173.340149,24.441198 173.747261,24.441198 C173.918676,24.441198 174.154369,24.3983447 174.454346,24.312637 C174.71147,24.2055023 174.957876,24.1519357 175.193572,24.1519357 Z M188.981738,10.2673484 C189.624547,10.2673484 190.165569,10.4494747 190.604821,10.8137327 C191.044073,11.1779906 191.263696,11.606523 191.263696,12.0993426 C191.263696,12.7635777 191.092283,13.2617466 190.749452,13.5938641 C190.406621,13.9259817 189.999515,14.092038 189.528123,14.092038 C189.206719,14.092038 188.842466,14.0170448 188.435354,13.8670562 C188.371073,13.8456293 188.226444,13.8027761 188.001461,13.7384953 C187.776478,13.6742144 187.535429,13.6420745 187.278305,13.6420745 C186.721205,13.6420745 186.185539,13.8134875 185.671293,14.1563185 C185.157046,14.4991495 184.733871,15.018745 184.401753,15.7151205 C184.069636,16.4114961 183.903579,17.2417775 183.903579,18.2059898 L183.903579,25.8232286 C183.903579,26.3803291 183.721453,26.846358 183.357195,27.2213294 C182.992937,27.5963009 182.532265,27.7837838 181.975164,27.7837838 C181.418064,27.7837838 180.957392,27.5963009 180.593134,27.2213294 C180.228876,26.846358 180.046749,26.3803291 180.046749,25.8232286 L180.046749,12.5493061 C180.046749,11.9922056 180.228876,11.5261767 180.593134,11.1512053 C180.957392,10.7762338 181.418064,10.5887509 181.975164,10.5887509 C182.532265,10.5887509 182.992937,10.7762338 183.357195,11.1512053 C183.721453,11.5261767 183.903579,11.9922056 183.903579,12.5493061 L183.903579,12.9671293 C184.396399,12.0886248 185.103477,11.419043 186.024836,10.9583638 C186.946194,10.4976846 187.931818,10.2673484 188.981738,10.2673484 Z M209.808619,19.2023375 C209.808619,20.9164926 209.42294,22.4538525 208.65157,23.8144631 C207.880201,25.1750738 206.82494,26.2303347 205.485756,26.9802776 C204.146572,27.7302205 202.673492,28.1051863 201.066472,28.1051863 C199.438024,28.1051863 197.959588,27.7302205 196.631118,26.9802776 C195.302647,26.2303347 194.252743,25.1750738 193.481373,23.8144631 C192.710003,22.4538525 192.324324,20.9164926 192.324324,19.2023375 C192.324324,17.4881823 192.710003,15.9508225 193.481373,14.5902118 C194.252743,13.2296012 195.302647,12.1689836 196.631118,11.4083272 C197.959588,10.6476709 199.438024,10.2673484 201.066472,10.2673484 C202.673492,10.2673484 204.146572,10.6476709 205.485756,11.4083272 C206.82494,12.1689836 207.880201,13.2296012 208.65157,14.5902118 C209.42294,15.9508225 209.808619,17.4881823 209.808619,19.2023375 Z M205.95179,19.2023375 C205.95179,18.1524174 205.732167,17.2150029 205.292915,16.3900657 C204.853662,15.5651286 204.26443,14.9276867 203.525201,14.477721 C202.785971,14.0277552 201.966403,13.8027757 201.066472,13.8027757 C200.16654,13.8027757 199.346972,14.0277552 198.607743,14.477721 C197.868513,14.9276867 197.279281,15.5651286 196.840029,16.3900657 C196.400777,17.2150029 196.181154,18.1524174 196.181154,19.2023375 C196.181154,20.2522575 196.400777,21.1843154 196.840029,21.9985391 C197.279281,22.8127628 197.868513,23.444848 198.607743,23.8948137 C199.346972,24.3447795 200.16654,24.5697589 201.066472,24.5697589 C201.966403,24.5697589 202.785971,24.3447795 203.525201,23.8948137 C204.26443,23.444848 204.853662,22.8127628 205.292915,21.9985391 C205.732167,21.1843154 205.95179,20.2522575 205.95179,19.2023375 Z M222.214755,10.2673484 C224.400303,10.2673484 225.91088,10.9155036 226.74653,12.2118335 C227.582181,13.5081633 228,15.3026425 228,17.5953251 L228,25.8232286 C228,26.3803291 227.817874,26.846358 227.453616,27.2213294 C227.089358,27.5963009 226.628686,27.7837838 226.071585,27.7837838 C225.514485,27.7837838 225.053812,27.5963009 224.689554,27.2213294 C224.325296,26.846358 224.14317,26.3803291 224.14317,25.8232286 L224.14317,17.5953251 C224.14317,16.4168434 223.896764,15.4901422 223.403944,14.8151936 C222.911125,14.140245 222.064773,13.8027757 220.864865,13.8027757 C219.622102,13.8027757 218.647191,14.1616716 217.940102,14.8794741 C217.233013,15.5972765 216.879474,16.5025511 216.879474,17.5953251 L216.879474,25.8232286 C216.879474,26.3803291 216.697348,26.846358 216.33309,27.2213294 C215.968832,27.5963009 215.50816,27.7837838 214.951059,27.7837838 C214.393959,27.7837838 213.933286,27.5963009 213.569028,27.2213294 C213.204771,26.846358 213.022644,26.3803291 213.022644,25.8232286 L213.022644,12.5493061 C213.022644,11.9922056 213.204771,11.5261767 213.569028,11.1512053 C213.933286,10.7762338 214.393959,10.5887509 214.951059,10.5887509 C215.50816,10.5887509 215.968832,10.7762338 216.33309,11.1512053 C216.697348,11.5261767 216.879474,11.9922056 216.879474,12.5493061 L216.879474,13.0956903 C217.458001,12.3243205 218.21329,11.6600953 219.145362,11.1029949 C220.077433,10.5458945 221.100554,10.2673484 222.214755,10.2673484 Z" id="Accreditron" fill="#FFFFFF"></path>
            <g id="Page-1-Copy-6">
                <path d="M6.35665839,32.10617 C6.35665839,32.10617 11.7321811,27.0061621 8.9029432,21.9063007 C5.73073636,16.1880322 -1.84810215,10.8196105 0.415302784,3.4893202 C1.13951917,1.14388825 4.28691456,-0.876178144 6.47866635,0.39134755 L28.9527952,13.3882319 C31.1441811,14.6555377 31.1441811,17.8232891 28.9527952,19.0905949 L6.35665839,32.10617 Z" id="Fill-1" fill="#FFFFFF"></path>
                <path d="M9.037112,21.7600549 C7.96001208,19.8633078 6.38247451,18.0053023 4.84579809,16.1003416 C1.78834396,19.8904197 -1.10744861,23.8665019 0.42157563,28.704134 C1.15135577,31.0132301 4.30531651,33.0037425 6.52779162,31.8024572 C7.17183764,31.1707412 11.7092826,26.4657615 9.037112,21.7600549" id="Fill-12" fill="#00A5FF"></path>
            </g>
        </g>
    </g>
</svg>