<?xml version="1.0" encoding="UTF-8"?>
<svg width="24px" height="24px" viewBox="0 0 24 24" version="1.1" xmlns="http://www.w3.org/2000/svg" xmlns:xlink="http://www.w3.org/1999/xlink">
    <!-- Generator: Sketch 50.2 (55047) - http://www.bohemiancoding.com/sketch -->
    <title>Group 10</title>
    <desc>Created with Sketch.</desc>
    <defs></defs>
    <g id="Marketing-Website" stroke="none" stroke-width="1" fill="none" fill-rule="evenodd">
        <g id="Desktop-HD-Copy-3" transform="translate(-100.000000, -1725.000000)" fill-rule="nonzero">
            <g id="Group-10" transform="translate(100.000000, 1725.000000)">
                <g id="noun_407444_cc" opacity="0.8" transform="translate(5.000000, 4.000000)" fill="#000000">
                    <g id="Group">
                        <g id="a-link">
                            <g id="a">
                                <path d="M2.93333333,9.89333333 C1.85777778,10.8 1.31555556,12.1022222 1.30666667,13.8 C1.30666667,14.0133333 1.38666667,14.2 1.54666667,14.36 C1.69777778,14.52 1.88444444,14.6 2.10666667,14.6 C2.31111111,14.6 2.49333333,14.52 2.65333333,14.36 C2.81333333,14.2088889 2.89333333,14.0266667 2.89333333,13.8133333 C2.90222222,12.64 3.25777778,11.7333333 3.96,11.0933333 C4.68888889,10.4888889 5.68444444,10.1866667 6.94666667,10.1866667 C8.27111111,10.1866667 9.30222222,10.48 10.04,11.0666667 L10.0266667,11.0666667 C10.7288889,11.7066667 11.0844444,12.6222222 11.0933333,13.8133333 C11.0933333,14.0266667 11.1733333,14.2088889 11.3333333,14.36 C11.4933333,14.52 11.68,14.6 11.8933333,14.6 C12.1066667,14.6 12.2888889,14.52 12.44,14.36 C12.5911111,14.2 12.6666667,14.0133333 12.6666667,13.8 C12.6577778,12.0666667 12.1244444,10.7555556 11.0666667,9.86666667 C10.0977778,9.02222222 8.72444444,8.6 6.94666667,8.6 C5.23111111,8.6 3.89333333,9.03555556 2.93333333,9.90666667 L2.93333333,9.89333333 Z M0.746666667,4.73333333 C0.444444444,5.05333333 0.293333333,5.44444444 0.293333333,5.90666667 C0.293333333,6.36 0.444444444,6.74222222 0.746666667,7.05333333 C1.07555556,7.37333333 1.46666667,7.53333333 1.92,7.53333333 C2.37333333,7.53333333 2.75555556,7.37333333 3.06666667,7.05333333 C3.39555556,6.74222222 3.56,6.36 3.56,5.90666667 C3.56,5.44444444 3.39555556,5.05333333 3.06666667,4.73333333 C2.75555556,4.42222222 2.37333333,4.26666667 1.92,4.26666667 C1.46666667,4.26666667 1.07555556,4.42222222 0.746666667,4.73333333 Z M10.8933333,7.05333333 C11.2222222,7.37333333 11.6133333,7.53333333 12.0666667,7.53333333 C12.52,7.53333333 12.9022222,7.37333333 13.2133333,7.05333333 C13.5422222,6.74222222 13.7066667,6.36 13.7066667,5.90666667 C13.7066667,5.44444444 13.5422222,5.05333333 13.2133333,4.73333333 C12.9022222,4.42222222 12.52,4.26666667 12.0666667,4.26666667 C11.6133333,4.26666667 11.2222222,4.42222222 10.8933333,4.73333333 C10.5911111,5.05333333 10.44,5.44444444 10.44,5.90666667 C10.44,6.36 10.5911111,6.74222222 10.8933333,7.05333333 Z M4.73333333,4.78666667 C4.93777778,4.76888889 5.11555556,4.68 5.26666667,4.52 C5.40888889,4.34222222 5.47111111,4.15111111 5.45333333,3.94666667 C5.43555556,3.72444444 5.34222222,3.54222222 5.17333333,3.4 L2.05333333,0.76 C1.88444444,0.608888889 1.69777778,0.542222222 1.49333333,0.56 C1.27111111,0.577777778 1.08888889,0.675555556 0.946666667,0.853333333 C0.795555556,1.01333333 0.728888889,1.20444444 0.746666667,1.42666667 C0.764444444,1.63111111 0.862222222,1.80888889 1.04,1.96 L4.16,4.6 C4.32,4.74222222 4.51111111,4.80444444 4.73333333,4.78666667 Z M12.5466667,0.573333333 C12.3333333,0.546666667 12.1422222,0.608888889 11.9733333,0.76 L8.85333333,3.4 C8.68444444,3.53333333 8.59555556,3.71111111 8.58666667,3.93333333 C8.56,4.14666667 8.61777778,4.34222222 8.76,4.52 C8.89333333,4.68 9.07111111,4.76888889 9.29333333,4.78666667 C9.50666667,4.80444444 9.70222222,4.74666667 9.88,4.61333333 L13,1.97333333 C13.16,1.82222222 13.2488889,1.64 13.2666667,1.42666667 C13.2844444,1.20444444 13.2266667,1.01333333 13.0933333,0.853333333 C12.9511111,0.675555556 12.7688889,0.582222222 12.5466667,0.573333333 Z" id="Shape"></path>
                            </g>
                        </g>
                    </g>
                </g>
                <g id="noun_407444_cc" opacity="0.2" fill="#FF0101">
                    <g id="Group">
                        <g id="a-link">
                            <g id="a">
                                <path d="M20.4933333,20.4933333 C22.8311111,18.1466667 24,15.3155556 24,12 C24,8.68444444 22.8311111,5.85777778 20.4933333,3.52 C18.1466667,1.17333333 15.3155556,0 12,0 C8.68444444,0 5.85777778,1.17333333 3.52,3.52 C1.17333333,5.85777778 0,8.68444444 0,12 C0,15.3155556 1.17333333,18.1466667 3.52,20.4933333 C5.85777778,22.8311111 8.68444444,24 12,24 C15.3155556,24 18.1466667,22.8311111 20.4933333,20.4933333 Z" id="Shape"></path>
                            </g>
                        </g>
                    </g>
                </g>
            </g>
        </g>
    </g>
</svg>