<?xml version="1.0" encoding="UTF-8"?>
<svg width="24px" height="24px" viewBox="0 0 24 24" version="1.1" xmlns="http://www.w3.org/2000/svg" xmlns:xlink="http://www.w3.org/1999/xlink">
    <!-- Generator: Sketch 50.2 (55047) - http://www.bohemiancoding.com/sketch -->
    <title>Group 11</title>
    <desc>Created with Sketch.</desc>
    <defs></defs>
    <g id="Marketing-Website" stroke="none" stroke-width="1" fill="none" fill-rule="evenodd">
        <g id="Desktop-HD-Copy-3" transform="translate(-619.000000, -1725.000000)" fill-rule="nonzero">
            <g id="Group-11" transform="translate(619.000000, 1725.000000)">
                <g id="noun_407445_cc" opacity="0.5" fill="#EFC754">
                    <g id="Group">
                        <g id="a-link">
                            <g id="a">
                                <path d="M20.48,20.4933333 C22.8266667,18.1466667 24,15.3155556 24,12 C24,8.68444444 22.8266667,5.85777778 20.48,3.52 C18.1422222,1.17333333 15.3155556,0 12,0 C8.68444444,0 5.85333333,1.17333333 3.50666667,3.52 C1.16888889,5.85777778 0,8.68444444 0,12 C0,15.3155556 1.16888889,18.1466667 3.50666667,20.4933333 C5.85333333,22.8311111 8.68444444,24 12,24 C15.3155556,24 18.1422222,22.8311111 20.48,20.4933333 Z" id="Shape"></path>
                            </g>
                        </g>
                    </g>
                </g>
                <g id="noun_407445_cc" opacity="0.8" transform="translate(5.000000, 8.000000)" fill="#000000">
                    <g id="Group">
                        <g id="a-link">
                            <g id="a">
                                <path d="M0.786666667,6.45333333 C0.795555556,8.35555556 1.38222222,9.79111111 2.54666667,10.76 L2.56,10.7733333 C3.60888889,11.6888889 5.11555556,12.1466667 7.08,12.1466667 C8.95555556,12.1466667 10.4266667,11.6755556 11.4933333,10.7333333 C12.6666667,9.72888889 13.2577778,8.30222222 13.2666667,6.45333333 C13.2666667,6.22222222 13.1866667,6.03111111 13.0266667,5.88 C12.8755556,5.72888889 12.6888889,5.65333333 12.4666667,5.65333333 L1.57333333,5.65333333 C1.36,5.65333333 1.17333333,5.72888889 1.01333333,5.88 C0.862222222,6.03111111 0.786666667,6.22222222 0.786666667,6.45333333 Z M3.57333333,9.56 C2.94222222,8.99111111 2.56,8.21333333 2.42666667,7.22666667 L11.6266667,7.22666667 C11.4933333,8.19555556 11.1022222,8.96888889 10.4533333,9.54666667 L10.4533333,9.53333333 C9.62666667,10.2266667 8.50222222,10.5733333 7.08,10.5733333 C5.56888889,10.5733333 4.4,10.2355556 3.57333333,9.56 Z M0.746666667,3.05333333 C1.07555556,3.37333333 1.46666667,3.53333333 1.92,3.53333333 C2.37333333,3.53333333 2.75555556,3.37333333 3.06666667,3.05333333 C3.38666667,2.74222222 3.54666667,2.36 3.54666667,1.90666667 C3.54666667,1.44444444 3.38666667,1.05333333 3.06666667,0.733333333 C2.75555556,0.422222222 2.37333333,0.266666667 1.92,0.266666667 C1.46666667,0.266666667 1.07555556,0.422222222 0.746666667,0.733333333 C0.435555556,1.05333333 0.28,1.44444444 0.28,1.90666667 C0.28,2.36 0.435555556,2.74222222 0.746666667,3.05333333 Z M12.0666667,3.53333333 C12.52,3.53333333 12.9022222,3.37333333 13.2133333,3.05333333 C13.5333333,2.74222222 13.6933333,2.36 13.6933333,1.90666667 C13.6933333,1.44444444 13.5333333,1.05333333 13.2133333,0.733333333 C12.9022222,0.422222222 12.52,0.266666667 12.0666667,0.266666667 C11.6133333,0.266666667 11.2222222,0.422222222 10.8933333,0.733333333 C10.5822222,1.05333333 10.4266667,1.44444444 10.4266667,1.90666667 C10.4266667,2.36 10.5822222,2.74222222 10.8933333,3.05333333 C11.2222222,3.37333333 11.6133333,3.53333333 12.0666667,3.53333333 Z" id="Shape"></path>
                            </g>
                        </g>
                    </g>
                </g>
            </g>
        </g>
    </g>
</svg>