<?xml version="1.0" encoding="UTF-8"?>
<svg width="195px" height="40px" viewBox="0 0 195 40" version="1.1" xmlns="http://www.w3.org/2000/svg" xmlns:xlink="http://www.w3.org/1999/xlink">
    <!-- Generator: Sketch 50.2 (55047) - http://www.bohemiancoding.com/sketch -->
    <title>Group 4</title>
    <desc>Created with Sketch.</desc>
    <defs></defs>
    <g id="Marketing-Website" stroke="none" stroke-width="1" fill="none" fill-rule="evenodd">
        <g id="Desktop-HD-Copy-3" transform="translate(-19.000000, -20.000000)">
            <g id="Group-4" transform="translate(19.000000, 20.000000)">
                <g id="Group-5-Copy-2">
                    <g id="Page-1-Copy-6">
                        <path d="M7.87672888,39.883441 C7.87672888,39.883441 14.5377026,33.5480274 11.0319079,27.2127959 C7.10112983,20.1093568 -2.29003962,13.4405099 0.51461432,4.33455925 C1.41201289,1.42097919 5.3120463,-1.08842005 8.02791265,0.486146025 L35.8762897,16.631344 C38.5917026,18.2056369 38.5917026,22.1407318 35.8762897,23.7150248 L7.87672888,39.883441 Z" id="Fill-1" fill="#393939"></path>
                        <path d="M11.1981605,27.0311242 C9.86349323,24.6749165 7.90871841,22.3668352 6.00457589,20.0004244 C2.21599142,24.7085959 -1.37227328,29.6478284 0.522387194,35.6573093 C1.42667998,38.5257517 5.33484872,40.9984379 8.08878526,39.506158 C8.88684229,38.7214176 14.5093285,32.8767223 11.1981605,27.0311242" id="Fill-12" fill="#00A5FF"></path>
                    </g>
                </g>
                <path d="M72.6,28.05 C72.6833338,28.2666677 72.725,28.4666658 72.725,28.65 C72.725,29.0833355 72.5833348,29.4374986 72.3,29.7125 C72.0166653,29.9875014 71.6916685,30.125 71.325,30.125 C71.0249985,30.125 70.7541679,30.0333342 70.5125,29.85 C70.2708321,29.6666657 70.083334,29.4166683 69.95,29.1 L68.65,26.075 L61.2,26.075 L59.9,29.125 C59.7833327,29.4416682 59.6041679,29.6874991 59.3625,29.8625 C59.1208321,30.0375009 58.8583347,30.125 58.575,30.125 C58.1416645,30.125 57.8125011,30.0083345 57.5875,29.775 C57.3624989,29.5416655 57.25,29.225002 57.25,28.825 C57.25,28.6749992 57.2749997,28.5166675 57.325,28.35 L63.55,13.4 C63.683334,13.066665 63.883332,12.8083342 64.15,12.625 C64.416668,12.4416657 64.716665,12.3666665 65.05,12.4 C65.3500015,12.4 65.6291654,12.4874991 65.8875,12.6625 C66.1458346,12.8375009 66.3333327,13.0833317 66.45,13.4 L72.6,28.05 Z M62.425,23.2 L67.425,23.2 L64.9,17.35 L62.425,23.2 Z M80.425,16.375 C81.8416738,16.375 82.983329,16.5958311 83.85,17.0375 C84.716671,17.4791689 85.15,18.066663 85.15,18.8 C85.15,19.1666685 85.0416678,19.4874986 84.825,19.7625 C84.6083323,20.0375014 84.3250017,20.175 83.975,20.175 C83.708332,20.175 83.4916675,20.1375004 83.325,20.0625 C83.1583325,19.9874996 82.9958341,19.8875006 82.8375,19.7625 C82.6791659,19.6374994 82.5250008,19.5333338 82.375,19.45 C82.2083325,19.3666662 81.9625016,19.291667 81.6375,19.225 C81.3124984,19.158333 81.050001,19.125 80.85,19.125 C79.5999938,19.125 78.6208369,19.5124961 77.9125,20.2875 C77.2041631,21.0625039 76.85,22.0749938 76.85,23.325 C76.85,24.525006 77.2083298,25.5208294 77.925,26.3125 C78.6416703,27.1041706 79.5583278,27.5 80.675,27.5 C81.4916707,27.5 82.099998,27.400001 82.5,27.2 C82.6000005,27.1499997 82.7374991,27.0625006 82.9125,26.9375 C83.0875009,26.8124994 83.2499993,26.716667 83.4,26.65 C83.5500008,26.583333 83.7333323,26.55 83.95,26.55 C84.3666688,26.55 84.6958321,26.683332 84.9375,26.95 C85.1791679,27.216668 85.3,27.5583313 85.3,27.975 C85.3,28.375002 85.066669,28.7499983 84.6,29.1 C84.133331,29.4500017 83.5166705,29.7291656 82.75,29.9375 C81.9833295,30.1458344 81.166671,30.25 80.3,30.25 C79.0166603,30.25 77.8875049,29.950003 76.9125,29.35 C75.9374951,28.749997 75.183336,27.9208386 74.65,26.8625 C74.116664,25.8041614 73.85,24.6250065 73.85,23.325 C73.85,21.9749932 74.1291639,20.7750052 74.6875,19.725 C75.2458361,18.6749947 76.024995,17.8541696 77.025,17.2625 C78.025005,16.6708304 79.158327,16.375 80.425,16.375 Z M93.3,16.375 C94.7166738,16.375 95.858329,16.5958311 96.725,17.0375 C97.591671,17.4791689 98.025,18.066663 98.025,18.8 C98.025,19.1666685 97.9166678,19.4874986 97.7,19.7625 C97.4833323,20.0375014 97.2000017,20.175 96.85,20.175 C96.583332,20.175 96.3666675,20.1375004 96.2,20.0625 C96.0333325,19.9874996 95.8708341,19.8875006 95.7125,19.7625 C95.5541659,19.6374994 95.4000008,19.5333338 95.25,19.45 C95.0833325,19.3666662 94.8375016,19.291667 94.5125,19.225 C94.1874984,19.158333 93.925001,19.125 93.725,19.125 C92.4749937,19.125 91.4958369,19.5124961 90.7875,20.2875 C90.0791631,21.0625039 89.725,22.0749938 89.725,23.325 C89.725,24.525006 90.0833298,25.5208294 90.8,26.3125 C91.5166703,27.1041706 92.4333278,27.5 93.55,27.5 C94.3666707,27.5 94.974998,27.400001 95.375,27.2 C95.4750005,27.1499997 95.6124991,27.0625006 95.7875,26.9375 C95.9625009,26.8124994 96.1249993,26.716667 96.275,26.65 C96.4250008,26.583333 96.6083323,26.55 96.825,26.55 C97.2416688,26.55 97.5708321,26.683332 97.8125,26.95 C98.0541679,27.216668 98.175,27.5583313 98.175,27.975 C98.175,28.375002 97.941669,28.7499983 97.475,29.1 C97.008331,29.4500017 96.3916705,29.7291656 95.625,29.9375 C94.8583295,30.1458344 94.041671,30.25 93.175,30.25 C91.8916603,30.25 90.7625049,29.950003 89.7875,29.35 C88.8124951,28.749997 88.058336,27.9208386 87.525,26.8625 C86.991664,25.8041614 86.725,24.6250065 86.725,23.325 C86.725,21.9749932 87.0041639,20.7750052 87.5625,19.725 C88.1208361,18.6749947 88.899995,17.8541696 89.9,17.2625 C90.900005,16.6708304 92.033327,16.375 93.3,16.375 Z M107.3,16.375 C107.800003,16.375 108.220832,16.5166652 108.5625,16.8 C108.904168,17.0833347 109.075,17.4166647 109.075,17.8 C109.075,18.3166693 108.941668,18.7041654 108.675,18.9625 C108.408332,19.2208346 108.091669,19.35 107.725,19.35 C107.474999,19.35 107.191668,19.2916672 106.875,19.175 C106.825,19.1583332 106.712501,19.1250002 106.5375,19.075 C106.362499,19.0249997 106.175001,19 105.975,19 C105.541664,19 105.125002,19.133332 104.725,19.4 C104.324998,19.666668 103.995835,20.0708306 103.7375,20.6125 C103.479165,21.1541694 103.35,21.7999962 103.35,22.55 L103.35,28.475 C103.35,28.9083355 103.208335,29.2708319 102.925,29.5625 C102.641665,29.8541681 102.283335,30 101.85,30 C101.416664,30 101.058335,29.8541681 100.775,29.5625 C100.491665,29.2708319 100.35,28.9083355 100.35,28.475 L100.35,18.15 C100.35,17.7166645 100.491665,17.3541681 100.775,17.0625 C101.058335,16.7708319 101.416664,16.625 101.85,16.625 C102.283335,16.625 102.641665,16.7708319 102.925,17.0625 C103.208335,17.3541681 103.35,17.7166645 103.35,18.15 L103.35,18.475 C103.733335,17.7916632 104.28333,17.2708351 105,16.9125 C105.71667,16.5541649 106.483329,16.375 107.3,16.375 Z M122.65,23 C122.633333,23.400002 122.475002,23.7249988 122.175,23.975 C121.874999,24.2250012 121.525002,24.35 121.125,24.35 L112.875,24.35 C113.075001,25.3333382 113.53333,26.1041639 114.25,26.6625 C114.96667,27.2208361 115.774996,27.5 116.675,27.5 C117.358337,27.5 117.891665,27.4375006 118.275,27.3125 C118.658335,27.1874994 118.962499,27.0541674 119.1875,26.9125 C119.412501,26.7708326 119.566666,26.6750003 119.65,26.625 C119.950002,26.4749992 120.233332,26.4 120.5,26.4 C120.850002,26.4 121.149999,26.5249988 121.4,26.775 C121.650001,27.0250013 121.775,27.316665 121.775,27.65 C121.775,28.1000022 121.541669,28.5083315 121.075,28.875 C120.608331,29.2583353 119.983337,29.583332 119.2,29.85 C118.416663,30.116668 117.625004,30.25 116.825,30.25 C115.424993,30.25 114.204172,29.9583363 113.1625,29.375 C112.120828,28.7916637 111.31667,27.9875051 110.75,26.9625 C110.183331,25.9374949 109.9,24.7833397 109.9,23.5 C109.9,22.0666595 110.199997,20.8083388 110.8,19.725 C111.400003,18.6416613 112.191662,17.8125029 113.175,17.2375 C114.158338,16.6624971 115.208328,16.375 116.325,16.375 C117.425005,16.375 118.462495,16.674997 119.4375,17.275 C120.412505,17.875003 121.191664,18.6833282 121.775,19.7 C122.358336,20.7166717 122.65,21.8166608 122.65,23 Z M116.325,19.125 C114.391657,19.125 113.250002,20.0333242 112.9,21.85 L119.45,21.85 L119.45,21.675 C119.383333,20.9749965 119.04167,20.3750025 118.425,19.875 C117.80833,19.3749975 117.108337,19.125 116.325,19.125 Z M135.975,11.5 C136.408336,11.5 136.766665,11.6416653 137.05,11.925 C137.333335,12.2083347 137.475,12.5749977 137.475,13.025 L137.475,28.475 C137.475,28.9083355 137.333335,29.2708319 137.05,29.5625 C136.766665,29.8541681 136.408336,30 135.975,30 C135.541665,30 135.187501,29.8583348 134.9125,29.575 C134.637499,29.2916653 134.491667,28.9333355 134.475,28.5 C134.058331,28.9833358 133.495837,29.3958316 132.7875,29.7375 C132.079163,30.0791684 131.333337,30.25 130.55,30.25 C129.399994,30.25 128.358338,29.9541696 127.425,29.3625 C126.491662,28.7708304 125.754169,27.9500053 125.2125,26.9 C124.670831,25.8499948 124.4,24.65834 124.4,23.325 C124.4,21.99166 124.666664,20.7958386 125.2,19.7375 C125.733336,18.6791614 126.462495,17.8541696 127.3875,17.2625 C128.312505,16.6708304 129.333328,16.375 130.45,16.375 C131.250004,16.375 131.999997,16.5208319 132.7,16.8125 C133.400003,17.1041681 133.991664,17.4749977 134.475,17.925 L134.475,13.025 C134.475,12.5916645 134.616665,12.2291681 134.9,11.9375 C135.183335,11.6458319 135.541665,11.5 135.975,11.5 Z M130.925,27.5 C132.008339,27.5 132.891663,27.1041706 133.575,26.3125 C134.258337,25.5208294 134.6,24.525006 134.6,23.325 C134.6,22.124994 134.258337,21.125004 133.575,20.325 C132.891663,19.524996 132.008339,19.125 130.925,19.125 C129.858328,19.125 128.983337,19.524996 128.3,20.325 C127.616663,21.125004 127.275,22.124994 127.275,23.325 C127.275,24.525006 127.612497,25.5208294 128.2875,26.3125 C128.962503,27.1041706 129.841661,27.5 130.925,27.5 Z M143.55,28.475 C143.55,28.9083355 143.408335,29.2708319 143.125,29.5625 C142.841665,29.8541681 142.483336,30 142.05,30 C141.616665,30 141.258335,29.8541681 140.975,29.5625 C140.691665,29.2708319 140.55,28.9083355 140.55,28.475 L140.55,18.15 C140.55,17.7166645 140.691665,17.3541681 140.975,17.0625 C141.258335,16.7708319 141.616665,16.625 142.05,16.625 C142.483336,16.625 142.841665,16.7708319 143.125,17.0625 C143.408335,17.3541681 143.55,17.7166645 143.55,18.15 L143.55,28.475 Z M142.025,15 C141.458331,15 141.058335,14.9083343 140.825,14.725 C140.591666,14.5416657 140.475,14.216669 140.475,13.75 L140.475,13.275 C140.475,12.808331 140.599999,12.4833342 140.85,12.3 C141.100001,12.1166657 141.499997,12.025 142.05,12.025 C142.633336,12.025 143.041666,12.1166657 143.275,12.3 C143.508335,12.4833342 143.625,12.808331 143.625,13.275 L143.625,13.75 C143.625,14.2333358 143.504168,14.5624991 143.2625,14.7375 C143.020832,14.9125009 142.608336,15 142.025,15 Z M153.075,27.175 C153.308335,27.175 153.520832,27.2874989 153.7125,27.5125 C153.904168,27.7375011 154,28.0333315 154,28.4 C154,28.8500022 153.754169,29.2291651 153.2625,29.5375 C152.770831,29.8458349 152.21667,30 151.6,30 C150.566662,30 149.695837,29.7791689 148.9875,29.3375 C148.279163,28.8958311 147.925,27.9583405 147.925,26.525 L147.925,19.625 L146.775,19.625 C146.374998,19.625 146.041668,19.491668 145.775,19.225 C145.508332,18.958332 145.375,18.625002 145.375,18.225 C145.375,17.8416647 145.508332,17.5208346 145.775,17.2625 C146.041668,17.0041654 146.374998,16.875 146.775,16.875 L147.925,16.875 L147.925,15.275 C147.925,14.8416645 148.070832,14.4791681 148.3625,14.1875 C148.654168,13.8958319 149.016665,13.75 149.45,13.75 C149.866669,13.75 150.216665,13.8958319 150.5,14.1875 C150.783335,14.4791681 150.925,14.8416645 150.925,15.275 L150.925,16.875 L152.7,16.875 C153.100002,16.875 153.433332,17.008332 153.7,17.275 C153.966668,17.541668 154.1,17.874998 154.1,18.275 C154.1,18.6583353 153.966668,18.9791654 153.7,19.2375 C153.433332,19.4958346 153.100002,19.625 152.7,19.625 L150.925,19.625 L150.925,26.4 C150.925,26.7500017 151.016666,27.0041659 151.2,27.1625 C151.383334,27.3208341 151.633332,27.4 151.95,27.4 C152.083334,27.4 152.266666,27.366667 152.5,27.3 C152.700001,27.2166663 152.891666,27.175 153.075,27.175 Z M163.8,16.375 C164.300003,16.375 164.720832,16.5166652 165.0625,16.8 C165.404168,17.0833347 165.575,17.4166647 165.575,17.8 C165.575,18.3166693 165.441668,18.7041654 165.175,18.9625 C164.908332,19.2208346 164.591669,19.35 164.225,19.35 C163.974999,19.35 163.691668,19.2916672 163.375,19.175 C163.325,19.1583332 163.212501,19.1250002 163.0375,19.075 C162.862499,19.0249997 162.675001,19 162.475,19 C162.041665,19 161.625002,19.133332 161.225,19.4 C160.824998,19.666668 160.495835,20.0708306 160.2375,20.6125 C159.979165,21.1541694 159.85,21.7999962 159.85,22.55 L159.85,28.475 C159.85,28.9083355 159.708335,29.2708319 159.425,29.5625 C159.141665,29.8541681 158.783336,30 158.35,30 C157.916665,30 157.558335,29.8541681 157.275,29.5625 C156.991665,29.2708319 156.85,28.9083355 156.85,28.475 L156.85,18.15 C156.85,17.7166645 156.991665,17.3541681 157.275,17.0625 C157.558335,16.7708319 157.916665,16.625 158.35,16.625 C158.783336,16.625 159.141665,16.7708319 159.425,17.0625 C159.708335,17.3541681 159.85,17.7166645 159.85,18.15 L159.85,18.475 C160.233335,17.7916632 160.78333,17.2708351 161.5,16.9125 C162.21667,16.5541649 162.983329,16.375 163.8,16.375 Z M180,23.325 C180,24.65834 179.700003,25.8541614 179.1,26.9125 C178.499997,27.9708386 177.679172,28.7916637 176.6375,29.375 C175.595828,29.9583363 174.450006,30.25 173.2,30.25 C171.933327,30.25 170.783339,29.9583363 169.75,29.375 C168.716662,28.7916637 167.900003,27.9708386 167.3,26.9125 C166.699997,25.8541614 166.4,24.65834 166.4,23.325 C166.4,21.99166 166.699997,20.7958386 167.3,19.7375 C167.900003,18.6791614 168.716662,17.8541696 169.75,17.2625 C170.783339,16.6708304 171.933327,16.375 173.2,16.375 C174.450006,16.375 175.595828,16.6708304 176.6375,17.2625 C177.679172,17.8541696 178.499997,18.6791614 179.1,19.7375 C179.700003,20.7958386 180,21.99166 180,23.325 Z M177,23.325 C177,22.5083292 176.829168,21.7791699 176.4875,21.1375 C176.145832,20.4958301 175.687503,20.0000017 175.1125,19.65 C174.537497,19.2999982 173.900004,19.125 173.2,19.125 C172.499997,19.125 171.862503,19.2999982 171.2875,19.65 C170.712497,20.0000017 170.254168,20.4958301 169.9125,21.1375 C169.570832,21.7791699 169.4,22.5083292 169.4,23.325 C169.4,24.1416707 169.570832,24.8666635 169.9125,25.5 C170.254168,26.1333365 170.712497,26.6249982 171.2875,26.975 C171.862503,27.3250017 172.499997,27.5 173.2,27.5 C173.900004,27.5 174.537497,27.3250017 175.1125,26.975 C175.687503,26.6249982 176.145832,26.1333365 176.4875,25.5 C176.829168,24.8666635 177,24.1416707 177,23.325 Z M189.65,16.375 C191.350009,16.375 192.524997,16.8791616 193.175,17.8875 C193.825003,18.8958384 194.15,20.2916577 194.15,22.075 L194.15,28.475 C194.15,28.9083355 194.008335,29.2708319 193.725,29.5625 C193.441665,29.8541681 193.083336,30 192.65,30 C192.216665,30 191.858335,29.8541681 191.575,29.5625 C191.291665,29.2708319 191.15,28.9083355 191.15,28.475 L191.15,22.075 C191.15,21.1583287 190.958335,20.4375026 190.575,19.9125 C190.191665,19.3874974 189.533338,19.125 188.6,19.125 C187.633329,19.125 186.875003,19.4041639 186.325,19.9625 C185.774997,20.5208361 185.5,21.2249957 185.5,22.075 L185.5,28.475 C185.5,28.9083355 185.358335,29.2708319 185.075,29.5625 C184.791665,29.8541681 184.433336,30 184,30 C183.566665,30 183.208335,29.8541681 182.925,29.5625 C182.641665,29.2708319 182.5,28.9083355 182.5,28.475 L182.5,18.15 C182.5,17.7166645 182.641665,17.3541681 182.925,17.0625 C183.208335,16.7708319 183.566665,16.625 184,16.625 C184.433336,16.625 184.791665,16.7708319 185.075,17.0625 C185.358335,17.3541681 185.5,17.7166645 185.5,18.15 L185.5,18.575 C185.950002,17.974997 186.537496,17.4583355 187.2625,17.025 C187.987504,16.5916645 188.783329,16.375 189.65,16.375 Z" id="Accreditron" fill="#383838"></path>
            </g>
        </g>
    </g>
</svg>