<?xml version="1.0" encoding="UTF-8"?>
<svg width="194px" height="40px" viewBox="0 0 194 40" version="1.1" xmlns="http://www.w3.org/2000/svg" xmlns:xlink="http://www.w3.org/1999/xlink">
    <!-- Generator: Sketch 50.2 (55047) - http://www.bohemiancoding.com/sketch -->
    <title>Group 4</title>
    <desc>Created with Sketch.</desc>
    <defs></defs>
    <g id="Marketing-Website" stroke="none" stroke-width="1" fill="none" fill-rule="evenodd">
        <g id="Desktop-HD-Copy-3" transform="translate(-19.000000, -20.000000)">
            <g id="Group-4" transform="translate(19.000000, 20.000000)">
                <g id="Group-5-Copy-2">
                    <g id="Page-1-Copy-6">
                        <path d="M7.87672888,39.883441 C7.87672888,39.883441 14.5377026,33.5480274 11.0319079,27.2127959 C7.10112983,20.1093568 -2.29003962,13.4405099 0.51461432,4.33455925 C1.41201289,1.42097919 5.3120463,-1.08842005 8.02791265,0.486146025 L35.8762897,16.631344 C38.5917026,18.2056369 38.5917026,22.1407318 35.8762897,23.7150248 L7.87672888,39.883441 Z" id="Fill-1" fill="#393939"></path>
                        <path d="M11.1981605,27.0311242 C9.86349323,24.6749165 7.90871841,22.3668352 6.00457589,20.0004244 C2.21599142,24.7085959 -1.37227328,29.6478284 0.522387194,35.6573093 C1.42667998,38.5257517 5.33484872,40.9984379 8.08878526,39.506158 C8.88684229,38.7214176 14.5093285,32.8767223 11.1981605,27.0311242" id="Fill-12" fill="#00A5FF"></path>
                    </g>
                </g>
                <text id="Accreditron" font-family="Quicksand-Bold, Quicksand" font-size="25" font-weight="bold" fill="#383838">
                    <tspan x="57" y="30">Accreditron</tspan>
                </text>
            </g>
        </g>
    </g>
</svg>